<svg xmlns="http://www.w3.org/2000/svg" version="1.1" viewBox="0 0 1024 1024" width="1024.00" height="1024.00">
<g stroke-width="2.00" fill="none" stroke-linecap="butt">
<path stroke="#6b6499" d="&#10;  M 1024.00 496.14&#10;  Q 1022.11 489.62 1020.14 483.17&#10;  C 1018.32 477.22 1014.75 467.54 1006.88 468.08&#10;  C 1004.06 468.28 1000.86 468.12 997.30 467.30&#10;  C 991.50 465.97 989.79 459.88 988.32 454.92&#10;  A 0.05 0.05 0.0 0 0 988.23 454.93&#10;  L 988.02 471.54"/>
<path stroke="#565788" d="&#10;  M 721.29 36.14&#10;  L 719.75 36.14"/>
<path stroke="#565788" d="&#10;  M 697.04 36.13&#10;  L 695.75 36.13"/>
<path stroke="#565788" d="&#10;  M 695.29 36.12&#10;  L 693.79 36.12"/>
<path stroke="#565788" d="&#10;  M 693.29 36.13&#10;  L 691.79 36.14"/>
<path stroke="#565788" d="&#10;  M 503.68 36.16&#10;  L 498.80 36.08"/>
<path stroke="#5a6b9b" d="&#10;  M 186.62 37.29&#10;  C 179.80 22.71 181.03 12.67 192.12 0.49"/>
<path stroke="#5a6b9b" d="&#10;  M 36.42 526.96&#10;  Q 36.07 526.01 36.16 524.84&#10;  A 0.14 0.03 87.6 0 0 36.11 524.65&#10;  Q 36.10 524.68 36.09 524.79&#10;  Q 35.33 532.41 34.05 538.60&#10;  C 32.70 545.11 30.04 550.13 25.07 555.31&#10;  Q 16.75 563.96 8.84 570.51&#10;  Q 7.00 572.04 0.00 576.14"/>
<path stroke="#37608a" d="&#10;  M 496.17 183.69&#10;  Q 494.81 183.81 493.92 184.91&#10;  C 490.49 189.12 486.21 194.28 481.87 198.90&#10;  Q 466.70 215.06 451.50 233.83&#10;  A 1.48 1.45 65.6 0 0 451.17 234.73&#10;  C 450.55 256.99 450.92 279.23 450.63 301.27&#10;  Q 450.60 303.46 448.51 304.78&#10;  Q 423.25 320.84 416.96 324.89&#10;  C 413.06 327.40 408.61 331.01 404.46 333.74&#10;  Q 404.04 334.02 403.50 333.79"/>
<path stroke="#37608a" d="&#10;  M 403.24 279.25&#10;  Q 406.10 275.89 409.32 272.82&#10;  Q 431.48 251.67 449.98 234.54&#10;  A 0.24 0.23 24.4 0 0 449.82 234.13&#10;  Q 441.84 233.97 425.50 233.96&#10;  Q 313.10 233.93 254.33 234.31&#10;  C 251.22 234.33 248.17 234.53 245.34 233.41&#10;  Q 245.14 233.33 238.48 229.80&#10;  Q 220.10 220.08 202.80 209.94&#10;  Q 195.68 205.78 185.60 200.22&#10;  Q 171.15 192.26 168.40 190.57&#10;  Q 159.66 185.21 157.25 184.09"/>
<path stroke="#284d76" d="&#10;  M 495.95 214.29&#10;  L 495.89 215.71"/>
<path stroke="#284d76" d="&#10;  M 292.11 326.95&#10;  Q 291.77 328.97 292.19 330.80"/>
<path stroke="#37608a" d="&#10;  M 292.50 414.51&#10;  Q 290.95 414.96 288.85 416.85&#10;  Q 276.50 428.03 266.95 436.85&#10;  C 260.43 442.87 253.97 448.16 247.44 454.68&#10;  A 0.17 0.17 0.0 0 1 247.15 454.56&#10;  L 247.15 241.26&#10;  A 0.39 0.38 78.9 0 0 246.62 240.90&#10;  Q 221.71 251.30 198.56 264.76"/>
<path stroke="#425c88" d="&#10;  M 415.69 368.88&#10;  Q 416.67 369.46 416.33 370.49&#10;  A 0.96 0.96 0.0 0 1 416.09 370.89&#10;  Q 415.52 371.43 415.02 372.23&#10;  Q 403.79 390.39 396.48 402.27&#10;  Q 378.14 432.07 371.15 442.89&#10;  A 2.84 2.79 8.6 0 1 369.49 444.09&#10;  L 247.91 475.83&#10;  A 1.04 1.03 -7.2 0 0 247.13 476.83&#10;  L 246.97 660.35"/>
<path stroke="#5a6b9b" d="&#10;  M 246.97 660.35&#10;  Q 246.82 660.38 246.79 661.09"/>
<path stroke="#425c88" d="&#10;  M 246.79 661.09&#10;  L 200.05 693.53"/>
<path stroke="#4b5887" d="&#10;  M 338.83 757.48&#10;  Q 337.54 758.00 335.63 755.87&#10;  Q 327.08 746.38 301.24 718.87&#10;  Q 278.50 694.66 255.91 670.30&#10;  C 253.24 667.42 249.60 664.38 246.79 661.09"/>
<path stroke="#4b5887" d="&#10;  M 292.65 656.68&#10;  L 246.97 660.35"/>
<path stroke="#425c88" d="&#10;  M 662.77 182.30&#10;  Q 663.12 182.79 663.12 183.27&#10;  Q 663.11 183.70 662.57 184.04&#10;  Q 637.19 200.23 619.18 211.58&#10;  C 604.82 220.63 594.48 227.67 577.69 238.77&#10;  A 2.47 2.47 0.0 0 0 576.58 240.85&#10;  L 576.74 535.55"/>
<path stroke="#5a6b9b" d="&#10;  M 576.74 535.55&#10;  C 572.65 521.67 567.37 510.14 552.74 505.50&#10;  C 546.30 503.45 540.50 504.46 534.53 507.27&#10;  Q 532.28 508.33 531.33 508.01&#10;  C 529.27 507.31 528.69 503.47 528.30 501.54"/>
<path stroke="#525586" d="&#10;  M 622.11 687.53&#10;  Q 621.09 688.86 620.29 690.79&#10;  A 5.65 5.64 -16.3 0 1 619.72 691.83&#10;  Q 614.88 698.74 611.85 703.60&#10;  Q 596.50 728.14 581.90 752.92&#10;  Q 581.03 754.40 578.13 758.92"/>
<path stroke="#4b5887" d="&#10;  M 578.13 758.92&#10;  Q 577.65 759.93 577.17 760.22&#10;  A 0.44 0.44 0.0 0 1 576.51 759.83&#10;  Q 577.17 737.05 576.81 714.25&#10;  Q 576.61 701.20 576.61 700.25&#10;  Q 576.89 617.89 576.74 535.55"/>
<path stroke="#6b6499" d="&#10;  M 578.13 758.92&#10;  Q 578.56 759.80 579.49 760.34"/>
<path stroke="#62588c" d="&#10;  M 579.49 760.34&#10;  Q 577.44 761.12 576.93 761.91&#10;  Q 565.18 780.22 556.81 793.42&#10;  C 548.69 806.24 541.17 819.41 532.50 832.64&#10;  Q 532.35 832.87 531.01 834.40&#10;  Q 530.05 835.49 530.49 836.79"/>
<path stroke="#69548b" d="&#10;  M 776.98 660.07&#10;  Q 777.10 660.84 775.57 661.60&#10;  Q 767.27 665.74 757.81 670.49&#10;  Q 716.97 690.99 676.02 711.27&#10;  Q 642.20 728.02 608.57 745.08&#10;  Q 593.91 752.51 579.49 760.34"/>
<path stroke="#565788" d="&#10;  M 865.79 182.58&#10;  Q 866.25 182.84 866.07 183.35&#10;  A 1.00 0.93 86.2 0 1 865.67 183.84&#10;  L 777.24 239.13&#10;  A 0.92 0.91 73.7 0 0 776.82 239.90&#10;  L 776.91 659.22"/>
<path stroke="#6b6499" d="&#10;  M 776.91 659.22&#10;  C 771.12 655.56 765.27 651.01 760.02 647.63&#10;  Q 749.26 640.70 745.88 638.36&#10;  Q 738.43 633.18 731.76 630.70"/>
<path stroke="#54477a" d="&#10;  M 823.80 694.00&#10;  Q 821.65 690.95 818.58 688.89&#10;  Q 797.51 674.78 776.98 660.07"/>
<path stroke="#5d5387" d="&#10;  M 776.98 660.07&#10;  Q 777.07 659.54 776.91 659.22"/>
<path stroke="#3d4875" d="&#10;  M 495.87 536.48&#10;  L 495.87 546.20"/>
<path stroke="#3d4875" d="&#10;  M 495.88 554.96&#10;  L 495.86 557.29"/>
<path stroke="#3d4875" d="&#10;  M 495.92 649.58&#10;  L 495.95 679.17"/>
<path stroke="#5d5387" d="&#10;  M 368.13 774.62&#10;  Q 371.12 774.60 374.27 773.19&#10;  A 3.84 3.84 0.0 0 1 374.93 772.97&#10;  C 399.90 767.25 424.08 760.59 448.47 756.06&#10;  A 0.57 0.56 -6.1 0 0 448.93 755.50&#10;  L 448.90 753.73"/>
<path stroke="#565788" d="&#10;  M 448.90 753.73&#10;  L 448.76 597.92&#10;  A 1.35 1.28 -31.1 0 1 448.94 597.26&#10;  Q 460.51 577.04 480.63 541.73&#10;  Q 481.23 540.67 487.88 529.69&#10;  Q 491.66 523.46 494.61 517.37&#10;  Q 494.85 516.88 493.90 516.31"/>
<path stroke="#6b6499" d="&#10;  M 448.90 753.73&#10;  Q 447.51 752.85 444.86 750.38&#10;  Q 423.57 730.59 410.10 716.90&#10;  Q 407.50 714.26 403.22 712.25"/>
<path stroke="#6b6499" d="&#10;  M 46.04 945.84&#10;  Q 50.34 938.68 54.68 931.52&#10;  Q 59.37 923.76 69.13 917.23"/>
</g>
<path fill="#636799" d="&#10;  M 825.38 0.00&#10;  C 833.98 1.31 843.84 1.91 851.20 3.12&#10;  Q 891.01 9.69 924.41 30.37&#10;  Q 978.87 64.10 1005.91 123.00&#10;  Q 1019.77 153.19 1023.07 188.98&#10;  Q 1023.20 190.32 1024.00 194.71&#10;  L 1024.00 496.14&#10;  Q 1022.11 489.62 1020.14 483.17&#10;  C 1018.32 477.22 1014.75 467.54 1006.88 468.08&#10;  C 1004.06 468.28 1000.86 468.12 997.30 467.30&#10;  C 991.50 465.97 989.79 459.88 988.32 454.92&#10;  A 0.05 0.05 0.0 0 0 988.23 454.93&#10;  L 988.02 471.54&#10;  Q 988.16 342.65 987.95 213.75&#10;  Q 987.93 200.27 986.44 188.25&#10;  Q 980.46 139.84 951.06 101.85&#10;  Q 949.03 99.23 945.68 95.52&#10;  C 941.14 90.49 936.41 85.03 931.36 80.29&#10;  Q 920.27 69.89 905.49 60.79&#10;  Q 872.03 40.18 833.03 36.94&#10;  Q 820.65 35.91 809.00 35.95&#10;  Q 765.14 36.07 721.29 36.14&#10;  L 719.75 36.14&#10;  L 697.04 36.13&#10;  L 695.75 36.13&#10;  L 695.29 36.12&#10;  L 693.79 36.12&#10;  L 693.29 36.13&#10;  L 691.79 36.14&#10;  L 503.68 36.16&#10;  L 498.80 36.08&#10;  Q 353.78 36.17 208.75 36.22&#10;  Q 197.55 36.23 186.62 37.29&#10;  C 179.80 22.71 181.03 12.67 192.12 0.49&#10;  L 196.25 0.00&#10;  L 825.38 0.00&#10;  Z"/>
<path fill="#516f9c" d="&#10;  M 192.12 0.49&#10;  C 181.03 12.67 179.80 22.71 186.62 37.29&#10;  Q 144.59 42.16 110.09 66.02&#10;  Q 94.26 76.97 81.24 91.76&#10;  Q 38.63 140.19 36.48 205.25&#10;  Q 36.38 208.20 36.39 224.75&#10;  Q 36.46 375.85 36.42 526.96&#10;  Q 36.07 526.01 36.16 524.84&#10;  A 0.14 0.03 87.6 0 0 36.11 524.65&#10;  Q 36.10 524.68 36.09 524.79&#10;  Q 35.33 532.41 34.05 538.60&#10;  C 32.70 545.11 30.04 550.13 25.07 555.31&#10;  Q 16.75 563.96 8.84 570.51&#10;  Q 7.00 572.04 0.00 576.14&#10;  L 0.00 196.62&#10;  C 0.49 190.20 0.82 183.65 2.01 177.50&#10;  Q 7.05 151.59 15.75 129.48&#10;  Q 22.61 112.04 34.12 94.62&#10;  C 56.42 60.83 85.55 34.92 122.66 18.09&#10;  Q 131.58 14.05 144.84 9.94&#10;  Q 159.28 5.47 167.65 3.80&#10;  Q 172.55 2.83 192.12 0.49&#10;  Z"/>
<path fill="#484676" d="&#10;  M 503.68 36.16&#10;  L 498.80 36.08&#10;  L 503.68 36.16&#10;  Z"/>
<path fill="#484676" d="&#10;  M 693.29 36.13&#10;  L 691.79 36.14&#10;  L 693.29 36.13&#10;  Z"/>
<path fill="#484676" d="&#10;  M 695.29 36.12&#10;  L 693.79 36.12&#10;  L 695.29 36.12&#10;  Z"/>
<path fill="#484676" d="&#10;  M 697.04 36.13&#10;  L 695.75 36.13&#10;  L 697.04 36.13&#10;  Z"/>
<path fill="#484676" d="&#10;  M 721.29 36.14&#10;  L 719.75 36.14&#10;  L 721.29 36.14&#10;  Z"/>
<path fill="#516f9c" d="&#10;  M 496.17 183.69&#10;  Q 494.81 183.81 493.92 184.91&#10;  C 490.49 189.12 486.21 194.28 481.87 198.90&#10;  Q 466.70 215.06 451.50 233.83&#10;  A 1.48 1.45 65.6 0 0 451.17 234.73&#10;  C 450.55 256.99 450.92 279.23 450.63 301.27&#10;  Q 450.60 303.46 448.51 304.78&#10;  Q 423.25 320.84 416.96 324.89&#10;  C 413.06 327.40 408.61 331.01 404.46 333.74&#10;  Q 404.04 334.02 403.50 333.79&#10;  Q 403.04 331.84 403.07 329.75&#10;  Q 403.36 304.45 403.24 279.25&#10;  Q 406.10 275.89 409.32 272.82&#10;  Q 431.48 251.67 449.98 234.54&#10;  A 0.24 0.23 24.4 0 0 449.82 234.13&#10;  Q 441.84 233.97 425.50 233.96&#10;  Q 313.10 233.93 254.33 234.31&#10;  C 251.22 234.33 248.17 234.53 245.34 233.41&#10;  Q 245.14 233.33 238.48 229.80&#10;  Q 220.10 220.08 202.80 209.94&#10;  Q 195.68 205.78 185.60 200.22&#10;  Q 171.15 192.26 168.40 190.57&#10;  Q 159.66 185.21 157.25 184.09&#10;  Q 156.46 183.66 156.65 182.89&#10;  A 0.97 0.97 0.0 0 1 157.59 182.15&#10;  L 495.23 182.15&#10;  A 0.99 0.98 85.5 0 1 496.20 182.99&#10;  Q 496.25 183.32 496.17 183.69&#10;  Z"/>
<path fill="#516f9c" d="&#10;  M 662.77 182.30&#10;  Q 663.12 182.79 663.12 183.27&#10;  Q 663.11 183.70 662.57 184.04&#10;  Q 637.19 200.23 619.18 211.58&#10;  C 604.82 220.63 594.48 227.67 577.69 238.77&#10;  A 2.47 2.47 0.0 0 0 576.58 240.85&#10;  L 576.74 535.55&#10;  C 572.65 521.67 567.37 510.14 552.74 505.50&#10;  C 546.30 503.45 540.50 504.46 534.53 507.27&#10;  Q 532.28 508.33 531.33 508.01&#10;  C 529.27 507.31 528.69 503.47 528.30 501.54&#10;  L 528.17 182.88&#10;  A 0.60 0.59 0.0 0 1 528.77 182.29&#10;  L 662.77 182.30&#10;  Z"/>
<path fill="#636799" d="&#10;  M 865.79 182.58&#10;  Q 866.25 182.84 866.07 183.35&#10;  A 1.00 0.93 86.2 0 1 865.67 183.84&#10;  L 777.24 239.13&#10;  A 0.92 0.91 73.7 0 0 776.82 239.90&#10;  L 776.91 659.22&#10;  C 771.12 655.56 765.27 651.01 760.02 647.63&#10;  Q 749.26 640.70 745.88 638.36&#10;  Q 738.43 633.18 731.76 630.70&#10;  Q 732.90 628.99 732.90 623.75&#10;  Q 732.79 361.08 732.98 272.50&#10;  C 732.98 269.59 732.62 267.49 731.43 264.73&#10;  C 718.89 235.80 709.23 215.15 697.47 188.96&#10;  Q 696.22 186.17 695.08 182.98&#10;  A 0.46 0.46 0.0 0 1 695.51 182.36&#10;  L 865.79 182.58&#10;  Z"/>
<path fill="#324974" d="&#10;  M 622.11 687.53&#10;  Q 621.09 688.86 620.29 690.79&#10;  A 5.65 5.64 -16.3 0 1 619.72 691.83&#10;  Q 614.88 698.74 611.85 703.60&#10;  Q 596.50 728.14 581.90 752.92&#10;  Q 581.03 754.40 578.13 758.92&#10;  Q 577.65 759.93 577.17 760.22&#10;  A 0.44 0.44 0.0 0 1 576.51 759.83&#10;  Q 577.17 737.05 576.81 714.25&#10;  Q 576.61 701.20 576.61 700.25&#10;  Q 576.89 617.89 576.74 535.55&#10;  L 576.58 240.85&#10;  A 2.47 2.47 0.0 0 1 577.69 238.77&#10;  C 594.48 227.67 604.82 220.63 619.18 211.58&#10;  Q 637.19 200.23 662.57 184.04&#10;  Q 663.11 183.70 663.12 183.27&#10;  Q 663.12 182.79 662.77 182.30&#10;  Q 663.96 181.93 664.90 182.31&#10;  A 0.47 0.46 24.3 0 1 665.15 182.96&#10;  C 650.05 211.84 636.96 238.77 623.93 262.70&#10;  Q 621.90 266.43 621.87 270.75&#10;  Q 621.46 336.08 621.79 682.25&#10;  Q 621.80 684.11 622.11 687.53&#10;  Z"/>
<path fill="#484676" d="&#10;  M 823.80 694.00&#10;  Q 821.65 690.95 818.58 688.89&#10;  Q 797.51 674.78 776.98 660.07&#10;  Q 777.07 659.54 776.91 659.22&#10;  L 776.82 239.90&#10;  A 0.92 0.91 73.7 0 1 777.24 239.13&#10;  L 865.67 183.84&#10;  A 1.00 0.93 86.2 0 0 866.07 183.35&#10;  Q 866.25 182.84 865.79 182.58&#10;  Q 866.99 182.20 867.95 182.54&#10;  A 0.45 0.44 24.8 0 1 868.19 183.18&#10;  Q 865.49 187.82 864.42 189.91&#10;  Q 836.71 243.92 826.75 264.02&#10;  Q 825.21 267.14 825.11 270.50&#10;  Q 824.86 279.19 824.91 297.75&#10;  C 825.18 397.43 824.86 497.92 824.97 598.08&#10;  Q 825.04 665.44 824.90 692.25&#10;  Q 824.89 693.33 823.80 694.00&#10;  Z"/>
<path fill="#1d5077" d="&#10;  M 496.17 183.69&#10;  L 495.95 214.29&#10;  L 495.89 215.71&#10;  L 495.66 375.41&#10;  A 0.81 0.81 0.0 0 1 494.57 376.17&#10;  C 484.91 372.61 473.78 366.69 463.70 362.05&#10;  Q 434.75 348.74 404.16 334.86&#10;  Q 403.61 334.61 403.50 333.79&#10;  Q 404.04 334.02 404.46 333.74&#10;  C 408.61 331.01 413.06 327.40 416.96 324.89&#10;  Q 423.25 320.84 448.51 304.78&#10;  Q 450.60 303.46 450.63 301.27&#10;  C 450.92 279.23 450.55 256.99 451.17 234.73&#10;  A 1.48 1.45 65.6 0 1 451.50 233.83&#10;  Q 466.70 215.06 481.87 198.90&#10;  C 486.21 194.28 490.49 189.12 493.92 184.91&#10;  Q 494.81 183.81 496.17 183.69&#10;  Z"/>
<path fill="#1d5077" d="&#10;  M 403.24 279.25&#10;  L 293.45 279.34&#10;  A 1.03 1.03 0.0 0 0 292.42 280.37&#10;  L 292.11 326.95&#10;  Q 291.77 328.97 292.19 330.80&#10;  L 292.50 414.51&#10;  Q 290.95 414.96 288.85 416.85&#10;  Q 276.50 428.03 266.95 436.85&#10;  C 260.43 442.87 253.97 448.16 247.44 454.68&#10;  A 0.17 0.17 0.0 0 1 247.15 454.56&#10;  L 247.15 241.26&#10;  A 0.39 0.38 78.9 0 0 246.62 240.90&#10;  Q 221.71 251.30 198.56 264.76&#10;  L 157.25 184.09&#10;  Q 159.66 185.21 168.40 190.57&#10;  Q 171.15 192.26 185.60 200.22&#10;  Q 195.68 205.78 202.80 209.94&#10;  Q 220.10 220.08 238.48 229.80&#10;  Q 245.14 233.33 245.34 233.41&#10;  C 248.17 234.53 251.22 234.33 254.33 234.31&#10;  Q 313.10 233.93 425.50 233.96&#10;  Q 441.84 233.97 449.82 234.13&#10;  A 0.24 0.23 24.4 0 1 449.98 234.54&#10;  Q 431.48 251.67 409.32 272.82&#10;  Q 406.10 275.89 403.24 279.25&#10;  Z"/>
<path fill="#324974" d="&#10;  M 495.95 214.29&#10;  L 495.89 215.71&#10;  L 495.95 214.29&#10;  Z"/>
<path fill="#516f9c" d="&#10;  M 292.50 414.51&#10;  L 415.69 368.88&#10;  Q 416.67 369.46 416.33 370.49&#10;  A 0.96 0.96 0.0 0 1 416.09 370.89&#10;  Q 415.52 371.43 415.02 372.23&#10;  Q 403.79 390.39 396.48 402.27&#10;  Q 378.14 432.07 371.15 442.89&#10;  A 2.84 2.79 8.6 0 1 369.49 444.09&#10;  L 247.91 475.83&#10;  A 1.04 1.03 -7.2 0 0 247.13 476.83&#10;  L 246.97 660.35&#10;  Q 246.82 660.38 246.79 661.09&#10;  L 200.05 693.53&#10;  Q 199.57 693.16 199.57 692.76&#10;  Q 199.63 484.50 199.72 276.25&#10;  Q 199.73 269.08 198.56 264.76&#10;  Q 221.71 251.30 246.62 240.90&#10;  A 0.39 0.38 78.9 0 1 247.15 241.26&#10;  L 247.15 454.56&#10;  A 0.17 0.17 0.0 0 0 247.44 454.68&#10;  C 253.97 448.16 260.43 442.87 266.95 436.85&#10;  Q 276.50 428.03 288.85 416.85&#10;  Q 290.95 414.96 292.50 414.51&#10;  Z"/>
<path fill="#324974" d="&#10;  M 292.19 330.80&#10;  Q 291.77 328.97 292.11 326.95&#10;  L 292.19 330.80&#10;  Z"/>
<path fill="#324974" d="&#10;  M 292.65 656.68&#10;  L 246.97 660.35&#10;  L 247.13 476.83&#10;  A 1.04 1.03 -7.2 0 1 247.91 475.83&#10;  L 369.49 444.09&#10;  A 2.84 2.79 8.6 0 0 371.15 442.89&#10;  Q 378.14 432.07 396.48 402.27&#10;  Q 403.79 390.39 415.02 372.23&#10;  Q 415.52 371.43 416.09 370.89&#10;  A 0.96 0.96 0.0 0 0 416.33 370.49&#10;  Q 416.67 369.46 415.69 368.88&#10;  L 417.67 368.30&#10;  A 0.33 0.33 0.0 0 1 418.10 368.62&#10;  L 418.10 519.07&#10;  A 0.69 0.69 0.0 0 1 417.07 519.67&#10;  Q 414.50 518.21 399.17 511.13&#10;  Q 382.47 503.41 354.60 489.67&#10;  Q 352.93 488.85 350.58 489.81&#10;  Q 322.64 501.29 293.07 512.57&#10;  A 1.20 1.19 79.8 0 0 292.30 513.69&#10;  Q 292.03 578.29 292.17 643.50&#10;  Q 292.19 651.98 292.65 656.68&#10;  Z"/>
<path fill="#726098" d="&#10;  M 1024.00 496.14&#10;  L 1024.00 828.89&#10;  Q 1023.30 833.82 1022.78 838.76&#10;  C 1020.87 856.80 1016.93 874.38 1010.25 891.27&#10;  Q 992.26 936.83 956.87 969.06&#10;  Q 917.14 1005.24 864.15 1018.36&#10;  C 855.18 1020.58 843.57 1022.04 833.37 1024.00&#10;  L 192.61 1024.00&#10;  C 186.31 1022.91 180.41 1021.68 173.75 1020.62&#10;  Q 140.98 1015.44 111.95 1000.32&#10;  Q 73.31 980.20 46.04 945.84&#10;  Q 50.34 938.68 54.68 931.52&#10;  Q 59.37 923.76 69.13 917.23&#10;  Q 79.19 930.67 91.44 942.20&#10;  C 104.72 954.69 120.16 964.59 136.27 972.24&#10;  C 158.68 982.89 184.26 987.89 208.77 987.88&#10;  Q 531.85 987.87 802.27 987.84&#10;  Q 826.64 987.84 838.15 986.31&#10;  Q 858.88 983.55 876.51 976.73&#10;  C 905.53 965.50 931.77 946.71 951.06 922.48&#10;  C 973.86 893.84 985.48 860.46 987.63 824.10&#10;  Q 988.06 816.87 988.05 790.89&#10;  Q 987.98 631.22 988.02 471.54&#10;  L 988.23 454.93&#10;  A 0.05 0.05 0.0 0 1 988.32 454.92&#10;  C 989.79 459.88 991.50 465.97 997.30 467.30&#10;  C 1000.86 468.12 1004.06 468.28 1006.88 468.08&#10;  C 1014.75 467.54 1018.32 477.22 1020.14 483.17&#10;  Q 1022.11 489.62 1024.00 496.14&#10;  Z"/>
<path fill="#636799" d="&#10;  M 576.74 535.55&#10;  Q 576.89 617.89 576.61 700.25&#10;  Q 576.61 701.20 576.81 714.25&#10;  Q 577.17 737.05 576.51 759.83&#10;  A 0.44 0.44 0.0 0 0 577.17 760.22&#10;  Q 577.65 759.93 578.13 758.92&#10;  Q 578.56 759.80 579.49 760.34&#10;  Q 577.44 761.12 576.93 761.91&#10;  Q 565.18 780.22 556.81 793.42&#10;  C 548.69 806.24 541.17 819.41 532.50 832.64&#10;  Q 532.35 832.87 531.01 834.40&#10;  Q 530.05 835.49 530.49 836.79&#10;  Q 529.50 837.76 528.70 837.61&#10;  A 0.46 0.45 -84.7 0 1 528.33 837.16&#10;  L 528.30 501.54&#10;  C 528.69 503.47 529.27 507.31 531.33 508.01&#10;  Q 532.28 508.33 534.53 507.27&#10;  C 540.50 504.46 546.30 503.45 552.74 505.50&#10;  C 567.37 510.14 572.65 521.67 576.74 535.55&#10;  Z"/>
<path fill="#484676" d="&#10;  M 495.87 536.48&#10;  L 495.87 546.20&#10;  L 495.88 554.96&#10;  L 495.86 557.29&#10;  L 495.92 649.58&#10;  L 495.95 679.17&#10;  L 496.20 837.35&#10;  A 0.45 0.45 0.0 0 1 495.55 837.76&#10;  C 475.82 827.89 456.07 818.87 436.21 808.99&#10;  C 417.87 799.86 409.37 795.57 392.32 787.65&#10;  Q 377.64 780.84 368.54 776.22&#10;  Q 367.16 775.51 368.13 774.62&#10;  Q 371.12 774.60 374.27 773.19&#10;  A 3.84 3.84 0.0 0 1 374.93 772.97&#10;  C 399.90 767.25 424.08 760.59 448.47 756.06&#10;  A 0.57 0.56 -6.1 0 0 448.93 755.50&#10;  L 448.90 753.73&#10;  L 448.76 597.92&#10;  A 1.35 1.28 -31.1 0 1 448.94 597.26&#10;  Q 460.51 577.04 480.63 541.73&#10;  Q 481.23 540.67 487.88 529.69&#10;  Q 491.66 523.46 494.61 517.37&#10;  Q 494.85 516.88 493.90 516.31&#10;  Q 495.51 515.78 495.99 516.14&#10;  A 0.24 0.23 21.0 0 1 496.09 516.35&#10;  L 495.87 536.48&#10;  Z"/>
<path fill="#636799" d="&#10;  M 493.90 516.31&#10;  Q 494.85 516.88 494.61 517.37&#10;  Q 491.66 523.46 487.88 529.69&#10;  Q 481.23 540.67 480.63 541.73&#10;  Q 460.51 577.04 448.94 597.26&#10;  A 1.35 1.28 -31.1 0 0 448.76 597.92&#10;  L 448.90 753.73&#10;  Q 447.51 752.85 444.86 750.38&#10;  Q 423.57 730.59 410.10 716.90&#10;  Q 407.50 714.26 403.22 712.25&#10;  L 403.52 556.30&#10;  A 1.39 1.39 0.0 0 1 404.26 555.07&#10;  Q 410.10 552.02 414.78 550.00&#10;  Q 454.30 532.94 493.90 516.31&#10;  Z"/>
<path fill="#636799" d="&#10;  M 36.42 526.96&#10;  Q 36.41 668.10 36.30 809.25&#10;  Q 36.29 820.60 37.82 835.25&#10;  Q 42.53 880.40 69.13 917.23&#10;  Q 59.37 923.76 54.68 931.52&#10;  Q 50.34 938.68 46.04 945.84&#10;  C 30.51 926.77 18.47 905.35 10.70 882.06&#10;  Q 7.25 871.74 5.64 865.12&#10;  Q 2.15 850.84 0.00 830.52&#10;  L 0.00 576.14&#10;  Q 7.00 572.04 8.84 570.51&#10;  Q 16.75 563.96 25.07 555.31&#10;  C 30.04 550.13 32.70 545.11 34.05 538.60&#10;  Q 35.33 532.41 36.09 524.79&#10;  Q 36.10 524.68 36.11 524.65&#10;  A 0.14 0.03 87.6 0 1 36.16 524.84&#10;  Q 36.07 526.01 36.42 526.96&#10;  Z"/>
<path fill="#324974" d="&#10;  M 495.87 546.20&#10;  L 495.87 536.48&#10;  L 495.87 546.20&#10;  Z"/>
<path fill="#324974" d="&#10;  M 495.86 557.29&#10;  L 495.88 554.96&#10;  L 495.86 557.29&#10;  Z"/>
<path fill="#726098" d="&#10;  M 731.76 630.70&#10;  Q 738.43 633.18 745.88 638.36&#10;  Q 749.26 640.70 760.02 647.63&#10;  C 765.27 651.01 771.12 655.56 776.91 659.22&#10;  Q 777.07 659.54 776.98 660.07&#10;  Q 777.10 660.84 775.57 661.60&#10;  Q 767.27 665.74 757.81 670.49&#10;  Q 716.97 690.99 676.02 711.27&#10;  Q 642.20 728.02 608.57 745.08&#10;  Q 593.91 752.51 579.49 760.34&#10;  Q 578.56 759.80 578.13 758.92&#10;  Q 581.03 754.40 581.90 752.92&#10;  Q 596.50 728.14 611.85 703.60&#10;  Q 614.88 698.74 619.72 691.83&#10;  A 5.65 5.64 -16.3 0 0 620.29 690.79&#10;  Q 621.09 688.86 622.11 687.53&#10;  Q 623.46 687.97 625.01 686.93&#10;  Q 627.18 685.46 627.31 685.40&#10;  Q 675.87 659.63 724.73 634.41&#10;  Q 728.05 632.70 731.76 630.70&#10;  Z"/>
<path fill="#324974" d="&#10;  M 495.92 649.58&#10;  L 495.95 679.17&#10;  L 495.92 649.58&#10;  Z"/>
<path fill="#636799" d="&#10;  M 292.65 656.68&#10;  L 338.83 757.48&#10;  Q 337.54 758.00 335.63 755.87&#10;  Q 327.08 746.38 301.24 718.87&#10;  Q 278.50 694.66 255.91 670.30&#10;  C 253.24 667.42 249.60 664.38 246.79 661.09&#10;  Q 246.82 660.38 246.97 660.35&#10;  L 292.65 656.68&#10;  Z"/>
<path fill="#60487e" d="&#10;  M 823.80 694.00&#10;  L 530.49 836.79&#10;  Q 530.05 835.49 531.01 834.40&#10;  Q 532.35 832.87 532.50 832.64&#10;  C 541.17 819.41 548.69 806.24 556.81 793.42&#10;  Q 565.18 780.22 576.93 761.91&#10;  Q 577.44 761.12 579.49 760.34&#10;  Q 593.91 752.51 608.57 745.08&#10;  Q 642.20 728.02 676.02 711.27&#10;  Q 716.97 690.99 757.81 670.49&#10;  Q 767.27 665.74 775.57 661.60&#10;  Q 777.10 660.84 776.98 660.07&#10;  Q 797.51 674.78 818.58 688.89&#10;  Q 821.65 690.95 823.80 694.00&#10;  Z"/>
<path fill="#324974" d="&#10;  M 246.79 661.09&#10;  C 249.60 664.38 253.24 667.42 255.91 670.30&#10;  Q 278.50 694.66 301.24 718.87&#10;  Q 327.08 746.38 335.63 755.87&#10;  Q 337.54 758.00 338.83 757.48&#10;  L 340.70 761.40&#10;  A 0.24 0.23 88.7 0 1 340.40 761.72&#10;  C 316.38 751.16 290.39 737.97 263.06 724.70&#10;  Q 223.89 705.67 201.11 694.40&#10;  Q 200.45 694.07 200.05 693.53&#10;  L 246.79 661.09&#10;  Z"/>
<path fill="#726098" d="&#10;  M 448.90 753.73&#10;  L 448.93 755.50&#10;  A 0.57 0.56 -6.1 0 1 448.47 756.06&#10;  C 424.08 760.59 399.90 767.25 374.93 772.97&#10;  A 3.84 3.84 0.0 0 0 374.27 773.19&#10;  Q 371.12 774.60 368.13 774.62&#10;  Q 369.05 772.34 369.86 770.87&#10;  Q 382.79 747.55 396.11 724.45&#10;  Q 396.14 724.38 399.17 718.90&#10;  Q 400.98 715.60 403.22 712.25&#10;  Q 407.50 714.26 410.10 716.90&#10;  Q 423.57 730.59 444.86 750.38&#10;  Q 447.51 752.85 448.90 753.73&#10;  Z"/>
</svg>